# xmcd
# 
# Track frame offsets:
#     182
#     33047
#     46622
#     64522
#     89600
#     104005
#     125820
#     144057
#     157777
#     175015
#     205122
#     226025
#     241170
# 
# Disc length: 3525
# 
# Revision: 6
# Processed by: cddbd v1.5.2PL0 Copyright (c) Steve Scherf et al.
# Submitted via: fre:ac v1.0.17
# 
DISCID=960dc30d
DTITLE=Tab Benoit - Nice And Warm
DYEAR=1992
DGENRE=Blues
TTITLE0=Nice And Warm
TTITLE1=Open Book
TTITLE2=So High
TTITLE3=I Put A Spell On You
TTITLE4=Bone Pickin'
TTITLE5=Shining Moon
TTITLE6=The Killing Floor
TTITLE7=Up And Gone
TTITLE8=She's Out There Somewhere
TTITLE9=Drownin' On Dry Land
TTITLE10=Down In The Swamp
TTITLE11=Voodoo On The Bayou
TTITLE12=Ramblin' On My Mind
EXTD=Tab Benoit - Guitars, Steve Bailey - Bass, Gregg Bissonette - Drums, Paul English - Organ/Piano,
EXTT0=
EXTT1=
EXTT2=
EXTT3=
EXTT4=
EXTT5=
EXTT6=
EXTT7=
EXTT8=
EXTT9=
EXTT10=
EXTT11=
EXTT12=Dr. John - Piano, Douglas Potter - Bass
PLAYORDER=
